<svg xmlns="http://www.w3.org/2000/svg">
<path d="M69.16 38.6H69.64V39H60.92V38.6H61.44C62.1067 38.6 62.68 38.3733 63.16 37.92C63.6667 37.44 63.9467 36.8533 64 36.16V25.76H48.52V36.2C48.52 39.9333 47.6133 42.44 45.8 43.72C44.9733 44.3067 43.9067 44.7467 42.6 45.04L42.4 44.68C43.6 44.04 44.48 43.0533 45.04 41.72C45.6267 40.3867 45.92 38.5467 45.92 36.2V13.88C45.92 13.1867 45.6667 12.6 45.16 12.12C44.6533 11.64 44.0533 11.4 43.36 11.4H42.88V11H51.6V11.4H51.08C50.3867 11.4 49.7867 11.64 49.28 12.12C48.8 12.6 48.5467 13.1867 48.52 13.88V24.56H64V14.6C64.0267 11.1867 64.7867 8.81333 66.28 7.48C67.1867 6.68 68.4133 6.10667 69.96 5.76L70.16 6.12C68.96 6.76 68.0667 7.74667 67.48 9.08C66.8933 10.4133 66.6 12.2533 66.6 14.6V36.08C66.6 36.7733 66.84 37.3733 67.32 37.88C67.8267 38.36 68.44 38.6 69.16 38.6Z" fill="#E6E9E8"/>
<path d="M89.76 52.96C86.3733 52.96 83.6 51.88 81.44 49.72C79.84 48.12 78.7867 46.1067 78.28 43.68C75.7467 45.6 72.64 46.56 68.96 46.56C66.0533 46.56 63.4 45.9333 61 44.68C58.6267 43.4 56.76 41.6533 55.4 39.44C54.0667 37.2267 53.4 34.7333 53.4 31.96C53.4 29.1867 54.0667 26.6933 55.4 24.48C56.76 22.24 58.6267 20.5067 61 19.28C63.3733 18.0533 66.0267 17.44 68.96 17.44C72.64 17.44 75.88 18.3467 78.68 20.16L79.48 25.8H79.12C78.32 22.7067 76.5067 20.6 73.68 19.48C72.2933 18.92 70.72 18.64 68.96 18.64C65.36 18.64 62.36 19.8933 59.96 22.4C57.5867 24.9067 56.4 28.0933 56.4 31.96C56.4 35.8 57.6 38.9867 60 41.52C62.4 44.0533 65.3867 45.3333 68.96 45.36C70.6933 45.36 72.3467 45.0533 73.92 44.44C75.4933 43.8267 76.84 42.9733 77.96 41.88V34.8C77.96 34.2133 77.7867 33.7733 77.44 33.48C77.0933 33.16 76.6 33 75.96 33H75.32V32.6H83.16V33H82.56C81.8933 33 81.3867 33.16 81.04 33.48C80.6933 33.7733 80.5333 34.2133 80.56 34.8V40.96C80.72 45.1733 82.0933 48.1867 84.68 50C86.4933 51.28 88.84 51.92 91.72 51.92C92.92 51.92 94.2267 51.8 95.64 51.56L95.68 51.96C93.5467 52.6267 91.5733 52.96 89.76 52.96Z" fill="#E6E9E8"/>
</svg>
